<svg width="373" height="79" viewBox="0 0 373 79" fill="none" xmlns="http://www.w3.org/2000/svg">
<path d="M269.592 0L304.008 63.4777L338.424 0L372.503 0L325.805 78.184L282.218 78.184L249.678 23.6395L247.998 35.1116C245.555 43.1332 237.983 47.4209 230.115 48.6228L241.81 52.1002C243.423 52.9172 246.304 56.8335 246.304 58.4067V78.3258L215.262 78.3258V62.4581C215.262 61.533 213.757 59.4601 212.812 58.8321C211.868 58.2042 206.435 56.7187 205.477 56.7187L145.755 56.7187V78.3258L114.713 78.3258L114.713 23.6328L79.6225 23.6328L79.6225 78.3258H48.5806L48.5806 23.6328L0 23.6328L0 0L269.592 0ZM145.762 35.7868L212.907 35.7868C213.204 35.7868 216.605 34.1865 217.003 33.8016C219.77 31.121 217.273 24.9832 213.582 24.9832L145.762 24.9832V35.7868Z" fill="#2855FF"/>
</svg>
